<svg width="150" height="150" viewBox="0 0 150 150" xmlns="http://www.w3.org/2000/svg">
  <defs>
    <linearGradient id="logoGradient" x1="0%" y1="0%" x2="100%" y2="100%">
      <stop offset="0%" style="stop-color:#6C5CE7"/>
      <stop offset="100%" style="stop-color:#00CEC9"/>
    </linearGradient>
  </defs>
  <g fill="url(#logoGradient)">
    <path d="M75 15c-33.137 0-60 26.863-60 60s26.863 60 60 60 60-26.863 60-60-26.863-60-60-60zm0 110c-27.614 0-50-22.386-50-50s22.386-50 50-50 50 22.386 50 50-22.386 50-50 50z"/>
    <path d="M75 35c-22.091 0-40 17.909-40 40s17.909 40 40 40 40-17.909 40-40-17.909-40-40-40zm0 70c-16.569 0-30-13.431-30-30s13.431-30 30-30 30 13.431 30 30-13.431 30-30 30z"/>
    <circle cx="75" cy="75" r="15"/>
  </g>
</svg>
